<svg width="30" height="30" viewBox="0 0 30 30" fill="none" xmlns="http://www.w3.org/2000/svg">
<path d="M13.2442 2.0423C13.9752 0.702201 15.8568 0.654341 16.67 1.89871L16.7558 2.0423L28.7558 24.0423C29.4585 25.3306 28.5806 26.892 27.1499 26.9947L27 27L21.929 27.001C21.9758 26.6741 22 26.3399 22 26C22 25.6605 21.9758 25.3266 21.9291 25L27 25L15 3L3.00002 25L8.07091 25C8.02419 25.3266 8.00002 25.6605 8.00002 26C8.00002 26.3399 8.02424 26.6741 8.07105 27.001L3.00002 27C1.5325 27 0.582196 25.4816 1.17713 24.1765L1.24423 24.0423L13.2442 2.0423Z" fill="dark"/>
<path fill-rule="evenodd" clip-rule="evenodd" d="M15 3L27 25L21.9291 25C21.4439 21.6077 18.5265 19 15 19C11.4735 19 8.55612 21.6077 8.07089 25L3 25L15 3Z" fill="tomato"/>
<circle cx="15" cy="26" r="4" fill="tomato"/>
</svg>
